:SAMPLES-PER-SECOND 30
:FULLY-SPECIFIED
:DEGREES
202
root  38.9204 34.2991 12.2606 -162.324 83.8438 159.733
RightUpLeg  -79.2435 -13.7846 17.9949
RightLeg  56.4013 -5.06216 -8.59564
RightFoot  -15.0682 -0.428401 -10.015
RightToes  0.00048216 0.542163 -0.142577
Spine  74.2474 -5.03143 6.79375
Spine1  1.36119 -0.0505999 -3.14413
HEad  -39.2714 -4.86424 5.49437
LeftShoulder1  6.07805 -24.9437 -14.3347
LeftArm  -101.858 -65.6329 51.4574
LeftForeArm  -1.35178 -11.9107 0.430036
LeftHand  -0.25398 0.0180481 5.50724
RightShoulder  1.5532 10.8018 2.79079
RightArm  -86.3411 65.3494 -28.5505
RightForeArm  -25.2496 13.1995 3.23113
RightHand  -1.6503 11.578 -11.7516
LeftUpLeg  -79.118 14.736 -17.5764
LeftLeg  52.5077 1.74942 2.92541
LeftFoot  -11.6813 0.0808443 3.57203
LeftToes  1.06246e-005 4.65855e-005 -8.185e-006
203
root  38.9289 34.2773 12.2587 -162.048 83.8352 160.112
RightUpLeg  -79.2216 -13.8495 18.1142
RightLeg  56.5458 -5.11507 -8.7274
RightFoot  -15.169 -0.442244 -10.1439
RightToes  0.00048216 0.542163 -0.142577
Spine  74.1358 -4.92367 6.69419
Spine1  1.52421 -0.0449728 -3.10675
HEad  -39.7248 -4.80926 5.55095
LeftShoulder1  6.21453 -24.9883 -14.8191
LeftArm  -103.039 -65.7937 54.2375
LeftForeArm  -2.85174 -10.4201 0.380605
LeftHand  -0.25398 0.0180481 5.50724
RightShoulder  1.58218 11.0188 2.83304
RightArm  -86.7281 65.447 -28.8328
RightForeArm  -25.8658 12.4367 2.97618
RightHand  -1.85227 12.0339 -12.7977
LeftUpLeg  -79.0654 14.642 -17.3536
LeftLeg  52.6965 1.85568 3.09389
LeftFoot  -11.7746 0.0828256 3.52265
LeftToes  1.06246e-005 4.65855e-005 -8.185e-006
204
root  38.9063 34.2613 12.2515 -161.894 83.8071 160.441
RightUpLeg  -79.1714 -13.9486 18.1836
RightLeg  56.6683 -5.15075 -8.82545
RightFoot  -15.1943 -0.445723 -10.1746
RightToes  0.00048216 0.542163 -0.142577
Spine  74.2049 -4.88742 6.67301
Spine1  1.39181 -0.0260686 -3.09706
HEad  -40.1644 -4.85788 5.45402
LeftShoulder1  6.35215 -25.0147 -15.3217
LeftArm  -104.571 -65.8728 57.1465
LeftForeArm  -3.69639 -8.60955 0.293229
LeftHand  -0.25398 0.0180481 5.50724
RightShoulder  1.56019 11.0373 2.64503
RightArm  -87.4279 65.7056 -29.3319
RightForeArm  -26.2627 11.1753 2.55097
RightHand  -1.91314 11.9787 -13.2337
LeftUpLeg  -78.9531 14.5233 -17.1316
LeftLeg  52.8319 1.95333 3.24646
LeftFoot  -11.8036 0.0845801 3.51477
LeftToes  1.06246e-005 4.65855e-005 -8.185e-006
205
root  38.8434 34.2394 12.2409 -162.347 83.7789 160.169
RightUpLeg  -79.1758 -13.9964 18.1136
RightLeg  56.7885 -5.19365 -8.93517
RightFoot  -15.1645 -0.442553 -10.1655
RightToes  0.00048216 0.542163 -0.142577
Spine  74.2716 -4.82289 6.72386
Spine1  1.06711 0.0499576 -3.00795
HEad  -40.3098 -5.09238 5.17773
LeftShoulder1  6.41625 -24.999 -15.5795
LeftArm  -105.74 -66.108 59.2141
LeftForeArm  -2.48835 -6.92187 0.233142
LeftHand  -0.25398 0.0180481 5.50724
RightShoulder  1.50999 10.7415 2.4994
RightArm  -88.2862 66.1447 -30.431
RightForeArm  -26.0109 9.33451 2.0988
RightHand  -1.88899 11.8357 -13.1764
LeftUpLeg  -78.8799 14.3853 -17.0337
LeftLeg  52.9233 2.04352 3.38463
LeftFoot  -11.7551 0.0867813 3.522
LeftToes  1.06246e-005 4.65855e-005 -8.185e-006
206
root  38.7451 34.208 12.2356 -162.846 83.8053 159.836
RightUpLeg  -79.1747 -13.835 17.9086
RightLeg  56.8534 -5.32414 -9.16702
RightFoot  -15.1 -0.440463 -10.2895
RightToes  0.00048216 0.542163 -0.142577
Spine  74.1681 -4.6318 6.81739
Spine1  0.896637 0.207333 -2.77759
HEad  -40.3883 -5.38514 4.84658
LeftShoulder1  6.51708 -25.0926 -15.8799
LeftArm  -106.259 -66.3524 60.9299
LeftForeArm  -0.159143 -5.47602 -0.00640371
LeftHand  -0.25398 0.0180481 5.50724
RightShoulder  1.47886 10.4183 2.52565
RightArm  -89.421 66.5506 -32.1096
RightForeArm  -25.2535 7.20919 1.68167
RightHand  -1.85874 11.9925 -12.8661
LeftUpLeg  -78.9343 14.3604 -17.0857
LeftLeg  53.0114 2.08681 3.4563
LeftFoot  -11.6371 0.0849841 3.59763
LeftToes  1.06246e-005 4.65855e-005 -8.185e-006
207
root  38.6198 34.1971 12.2302 -162.259 83.857 160.744
RightUpLeg  -78.8954 -13.5898 17.7264
RightLeg  56.7099 -5.53261 -9.44884
RightFoot  -14.995 -0.436663 -10.4876
RightToes  0.00048216 0.542163 -0.142577
Spine  74.0849 -4.47062 7.02689
Spine1  0.88122 0.429396 -2.59735
HEad  -40.61 -5.53697 4.5282
LeftShoulder1  6.71912 -25.441 -16.3315
LeftArm  -106.338 -66.4097 62.5188
LeftForeArm  1.47495 -4.14593 -0.377861
LeftHand  -0.25398 0.0180481 5.50724
RightShoulder  1.50198 10.4205 2.71129
RightArm  -90.917 66.7463 -34.0939
RightForeArm  -24.1347 4.94986 1.15131
RightHand  -1.76577 11.9324 -12.2902
LeftUpLeg  -78.8941 14.5324 -17.1145
LeftLeg  53.0212 2.04302 3.39493
LeftFoot  -11.4403 0.0753038 3.78628
LeftToes  1.06246e-005 4.65855e-005 -8.185e-006
208
root  38.4674 34.2424 12.2053 -160.986 83.8716 162.587
RightUpLeg  -78.237 -13.5586 17.6512
RightLeg  56.2193 -5.69825 -9.53251
RightFoot  -14.8097 -0.419349 -10.5176
RightToes  0.00048216 0.542163 -0.142577
Spine  74.1689 -4.54098 7.37697
Spine1  0.805513 0.652867 -2.68687
HEad  -40.8286 -5.52644 4.15475
LeftShoulder1  6.91768 -26.0041 -16.5693
LeftArm  -105.993 -66.3804 63.3331
LeftForeArm  2.50485 -2.90118 -0.612873
LeftHand  -0.25398 0.0180481 5.50724
RightShoulder  1.5628 10.7072 2.94944
RightArm  -92.2813 66.7796 -36.133
RightForeArm  -22.565 2.53976 0.573938
RightHand  -1.69952 11.1902 -12.3614
LeftUpLeg  -78.4781 14.7829 -17.0486
LeftLeg  52.7392 1.96711 3.2547
LeftFoot  -11.136 0.059421 4.04902
LeftToes  1.06246e-005 4.65855e-005 -8.185e-006
209
root  38.2855 34.3531 12.1571 -160.534 83.9083 163.698
RightUpLeg  -77.3781 -13.7683 17.5998
RightLeg  55.3133 -5.75326 -9.29495
RightFoot  -14.451 -0.38148 -10.4308
RightToes  0.00048216 0.542163 -0.142577
Spine  74.1913 -4.74692 7.71096
Spine1  0.677738 0.840298 -3.01767
HEad  -40.8546 -5.52433 3.72226
LeftShoulder1  6.9904 -26.6156 -16.3025
LeftArm  -105.082 -66.516 63.1204
LeftForeArm  4.50806 -1.84698 -0.728629
LeftHand  -0.25398 0.0180481 5.50724
RightShoulder  1.62365 11.0837 3.10006
RightArm  -92.3272 66.7408 -37.8163
RightForeArm  -21.5388 0.274693 0.378422
RightHand  -1.9301 10.2533 -14.7199
LeftUpLeg  -77.7143 14.9917 -17.0411
LeftLeg  51.9856 1.95523 3.15444
LeftFoot  -10.678 0.0392307 4.31871
LeftToes  1.06246e-005 4.65855e-005 -8.185e-006
